<svg width="339" height="34" viewBox="0 0 339 34" fill="none" xmlns="http://www.w3.org/2000/svg">
<path d="M14 2.664V6.28H4.688V12.008H11.824V15.56H4.688V25H0.208V2.664H14ZM33.6568 15.752C33.6568 16.392 33.6141 16.968 33.5288 17.48H20.5688C20.6754 18.76 21.1234 19.7627 21.9128 20.488C22.7021 21.2133 23.6728 21.576 24.8248 21.576C26.4888 21.576 27.6728 20.8613 28.3768 19.432H33.2088C32.6968 21.1387 31.7154 22.5467 30.2648 23.656C28.8141 24.744 27.0328 25.288 24.9208 25.288C23.2141 25.288 21.6781 24.9147 20.3128 24.168C18.9688 23.4 17.9128 22.3227 17.1448 20.936C16.3981 19.5493 16.0247 17.9493 16.0247 16.136C16.0247 14.3013 16.3981 12.6907 17.1448 11.304C17.8914 9.91733 18.9368 8.85067 20.2808 8.104C21.6248 7.35733 23.1714 6.984 24.9208 6.984C26.6061 6.984 28.1101 7.34667 29.4328 8.072C30.7768 8.79733 31.8114 9.832 32.5368 11.176C33.2834 12.4987 33.6568 14.024 33.6568 15.752ZM29.0168 14.472C28.9954 13.32 28.5794 12.4027 27.7688 11.72C26.9581 11.016 25.9661 10.664 24.7928 10.664C23.6834 10.664 22.7448 11.0053 21.9768 11.688C21.2301 12.3493 20.7714 13.2773 20.6008 14.472H29.0168ZM53.4068 15.752C53.4068 16.392 53.3641 16.968 53.2788 17.48H40.3188C40.4254 18.76 40.8734 19.7627 41.6628 20.488C42.4521 21.2133 43.4228 21.576 44.5748 21.576C46.2388 21.576 47.4228 20.8613 48.1268 19.432H52.9588C52.4468 21.1387 51.4654 22.5467 50.0148 23.656C48.5641 24.744 46.7828 25.288 44.6708 25.288C42.9641 25.288 41.4281 24.9147 40.0628 24.168C38.7188 23.4 37.6628 22.3227 36.8948 20.936C36.1481 19.5493 35.7747 17.9493 35.7747 16.136C35.7747 14.3013 36.1481 12.6907 36.8948 11.304C37.6414 9.91733 38.6868 8.85067 40.0308 8.104C41.3748 7.35733 42.9214 6.984 44.6708 6.984C46.3561 6.984 47.8601 7.34667 49.1828 8.072C50.5268 8.79733 51.5614 9.832 52.2868 11.176C53.0334 12.4987 53.4068 14.024 53.4068 15.752ZM48.7668 14.472C48.7454 13.32 48.3294 12.4027 47.5188 11.72C46.7081 11.016 45.7161 10.664 44.5428 10.664C43.4334 10.664 42.4948 11.0053 41.7268 11.688C40.9801 12.3493 40.5214 13.2773 40.3508 14.472H48.7668ZM61.1568 1.32V25H56.6768V1.32H61.1568ZM157.282 6.28V11.88H164.802V15.432H157.282V21.352H165.762V25H152.802V2.632H165.762V6.28H157.282ZM177.225 20.872L181.705 7.272H186.473L179.913 25H174.473L167.945 7.272H172.745L177.225 20.872ZM205.469 15.752C205.469 16.392 205.427 16.968 205.341 17.48H192.381C192.488 18.76 192.936 19.7627 193.725 20.488C194.515 21.2133 195.485 21.576 196.637 21.576C198.301 21.576 199.485 20.8613 200.189 19.432H205.021C204.509 21.1387 203.528 22.5467 202.077 23.656C200.627 24.744 198.845 25.288 196.733 25.288C195.027 25.288 193.491 24.9147 192.125 24.168C190.781 23.4 189.725 22.3227 188.957 20.936C188.211 19.5493 187.837 17.9493 187.837 16.136C187.837 14.3013 188.211 12.6907 188.957 11.304C189.704 9.91733 190.749 8.85067 192.093 8.104C193.437 7.35733 194.984 6.984 196.733 6.984C198.419 6.984 199.923 7.34667 201.245 8.072C202.589 8.79733 203.624 9.832 204.349 11.176C205.096 12.4987 205.469 14.024 205.469 15.752ZM200.829 14.472C200.808 13.32 200.392 12.4027 199.581 11.72C198.771 11.016 197.779 10.664 196.605 10.664C195.496 10.664 194.557 11.0053 193.789 11.688C193.043 12.3493 192.584 13.2773 192.413 14.472H200.829ZM213.219 10.024C213.795 9.08533 214.542 8.34933 215.459 7.816C216.398 7.28267 217.465 7.016 218.659 7.016V11.72H217.475C216.067 11.72 215.001 12.0507 214.275 12.712C213.571 13.3733 213.219 14.5253 213.219 16.168V25H208.739V7.272H213.219V10.024ZM238.637 7.272L227.661 33.384H222.893L226.733 24.552L219.629 7.272H224.653L229.229 19.656L233.869 7.272H238.637ZM265.628 7.272L260.444 25H255.612L252.38 12.616L249.148 25H244.284L239.068 7.272H243.612L246.748 20.776L250.14 7.272H254.876L258.204 20.744L261.34 7.272H265.628ZM278.036 7.016C279.38 7.016 280.574 7.31467 281.62 7.912C282.665 8.488 283.476 9.352 284.052 10.504C284.649 11.6347 284.948 13 284.948 14.6V25H280.468V15.208C280.468 13.8 280.116 12.7227 279.412 11.976C278.708 11.208 277.748 10.824 276.532 10.824C275.294 10.824 274.313 11.208 273.588 11.976C272.884 12.7227 272.532 13.8 272.532 15.208V25H268.052V1.32H272.532V9.48C273.108 8.712 273.876 8.11467 274.836 7.688C275.796 7.24 276.862 7.016 278.036 7.016ZM305.688 15.752C305.688 16.392 305.645 16.968 305.56 17.48H292.6C292.707 18.76 293.155 19.7627 293.944 20.488C294.733 21.2133 295.704 21.576 296.856 21.576C298.52 21.576 299.704 20.8613 300.408 19.432H305.24C304.728 21.1387 303.747 22.5467 302.296 23.656C300.845 24.744 299.064 25.288 296.952 25.288C295.245 25.288 293.709 24.9147 292.344 24.168C291 23.4 289.944 22.3227 289.176 20.936C288.429 19.5493 288.056 17.9493 288.056 16.136C288.056 14.3013 288.429 12.6907 289.176 11.304C289.923 9.91733 290.968 8.85067 292.312 8.104C293.656 7.35733 295.203 6.984 296.952 6.984C298.637 6.984 300.141 7.34667 301.464 8.072C302.808 8.79733 303.843 9.832 304.568 11.176C305.315 12.4987 305.688 14.024 305.688 15.752ZM301.048 14.472C301.027 13.32 300.611 12.4027 299.8 11.72C298.989 11.016 297.997 10.664 296.824 10.664C295.715 10.664 294.776 11.0053 294.008 11.688C293.261 12.3493 292.803 13.2773 292.632 14.472H301.048ZM313.438 10.024C314.014 9.08533 314.761 8.34933 315.678 7.816C316.617 7.28267 317.683 7.016 318.878 7.016V11.72H317.694C316.286 11.72 315.219 12.0507 314.494 12.712C313.79 13.3733 313.438 14.5253 313.438 16.168V25H308.958V7.272H313.438V10.024ZM338.376 15.752C338.376 16.392 338.333 16.968 338.248 17.48H325.288C325.394 18.76 325.842 19.7627 326.632 20.488C327.421 21.2133 328.392 21.576 329.544 21.576C331.208 21.576 332.392 20.8613 333.096 19.432H337.928C337.416 21.1387 336.434 22.5467 334.984 23.656C333.533 24.744 331.752 25.288 329.64 25.288C327.933 25.288 326.397 24.9147 325.032 24.168C323.688 23.4 322.632 22.3227 321.864 20.936C321.117 19.5493 320.743 17.9493 320.743 16.136C320.743 14.3013 321.117 12.6907 321.864 11.304C322.61 9.91733 323.656 8.85067 325 8.104C326.344 7.35733 327.89 6.984 329.64 6.984C331.325 6.984 332.829 7.34667 334.152 8.072C335.496 8.79733 336.53 9.832 337.256 11.176C338.002 12.4987 338.376 14.024 338.376 15.752ZM333.736 14.472C333.714 13.32 333.298 12.4027 332.488 11.72C331.677 11.016 330.685 10.664 329.512 10.664C328.402 10.664 327.464 11.0053 326.696 11.688C325.949 12.3493 325.49 13.2773 325.32 14.472H333.736Z" fill="white"/>
<path d="M80.92 25.224C79.3627 25.224 77.9547 24.9573 76.696 24.424C75.4587 23.8907 74.4773 23.1227 73.752 22.12C73.0267 21.1173 72.6533 19.9333 72.632 18.568H77.432C77.496 19.4853 77.816 20.2107 78.392 20.744C78.9893 21.2773 79.8 21.544 80.824 21.544C81.8693 21.544 82.6907 21.2987 83.288 20.808C83.8853 20.296 84.184 19.6347 84.184 18.824C84.184 18.1627 83.9813 17.6187 83.576 17.192C83.1707 16.7653 82.6587 16.4347 82.04 16.2C81.4427 15.944 80.6107 15.6667 79.544 15.368C78.0933 14.9413 76.9093 14.5253 75.992 14.12C75.096 13.6933 74.3173 13.064 73.656 12.232C73.016 11.3787 72.696 10.248 72.696 8.84C72.696 7.51733 73.0267 6.36533 73.688 5.384C74.3493 4.40267 75.2773 3.656 76.472 3.144C77.6667 2.61067 79.032 2.344 80.568 2.344C82.872 2.344 84.7387 2.90933 86.168 4.04C87.6187 5.14933 88.4187 6.70667 88.568 8.712H83.64C83.5973 7.944 83.2667 7.31467 82.648 6.824C82.0507 6.312 81.2507 6.056 80.248 6.056C79.3733 6.056 78.6693 6.28 78.136 6.728C77.624 7.176 77.368 7.82667 77.368 8.68C77.368 9.27733 77.56 9.77867 77.944 10.184C78.3493 10.568 78.84 10.888 79.416 11.144C80.0133 11.3787 80.8453 11.656 81.912 11.976C83.3627 12.4027 84.5467 12.8293 85.464 13.256C86.3813 13.6827 87.1707 14.3227 87.832 15.176C88.4933 16.0293 88.824 17.1493 88.824 18.536C88.824 19.7307 88.5147 20.84 87.896 21.864C87.2773 22.888 86.3707 23.7093 85.176 24.328C83.9813 24.9253 82.5627 25.224 80.92 25.224ZM91.556 16.072C91.556 14.28 91.908 12.6907 92.612 11.304C93.3373 9.91733 94.308 8.85067 95.524 8.104C96.7613 7.35733 98.1373 6.984 99.652 6.984C100.975 6.984 102.127 7.25067 103.108 7.784C104.111 8.31733 104.911 8.98933 105.508 9.8V7.272H110.02V25H105.508V22.408C104.932 23.24 104.132 23.9333 103.108 24.488C102.105 25.0213 100.943 25.288 99.62 25.288C98.1267 25.288 96.7613 24.904 95.524 24.136C94.308 23.368 93.3373 22.2907 92.612 20.904C91.908 19.496 91.556 17.8853 91.556 16.072ZM105.508 16.136C105.508 15.048 105.295 14.12 104.868 13.352C104.441 12.5627 103.865 11.9653 103.14 11.56C102.415 11.1333 101.636 10.92 100.804 10.92C99.972 10.92 99.204 11.1227 98.5 11.528C97.796 11.9333 97.22 12.5307 96.772 13.32C96.3453 14.088 96.132 15.0053 96.132 16.072C96.132 17.1387 96.3453 18.0773 96.772 18.888C97.22 19.6773 97.796 20.2853 98.5 20.712C99.2253 21.1387 99.9933 21.352 100.804 21.352C101.636 21.352 102.415 21.1493 103.14 20.744C103.865 20.3173 104.441 19.72 104.868 18.952C105.295 18.1627 105.508 17.224 105.508 16.136ZM122.524 10.952H119.42V25H114.876V10.952H112.86V7.272H114.876V6.376C114.876 4.2 115.494 2.6 116.732 1.576C117.969 0.551999 119.836 0.0719992 122.332 0.136V3.912C121.244 3.89067 120.486 4.072 120.06 4.456C119.633 4.84 119.42 5.53333 119.42 6.536V7.272H122.524V10.952ZM141.907 15.752C141.907 16.392 141.864 16.968 141.779 17.48H128.819C128.925 18.76 129.373 19.7627 130.163 20.488C130.952 21.2133 131.923 21.576 133.075 21.576C134.739 21.576 135.923 20.8613 136.627 19.432H141.459C140.947 21.1387 139.965 22.5467 138.515 23.656C137.064 24.744 135.283 25.288 133.171 25.288C131.464 25.288 129.928 24.9147 128.563 24.168C127.219 23.4 126.163 22.3227 125.395 20.936C124.648 19.5493 124.275 17.9493 124.275 16.136C124.275 14.3013 124.648 12.6907 125.395 11.304C126.141 9.91733 127.187 8.85067 128.531 8.104C129.875 7.35733 131.421 6.984 133.171 6.984C134.856 6.984 136.36 7.34667 137.683 8.072C139.027 8.79733 140.061 9.832 140.787 11.176C141.533 12.4987 141.907 14.024 141.907 15.752ZM137.267 14.472C137.245 13.32 136.829 12.4027 136.019 11.72C135.208 11.016 134.216 10.664 133.043 10.664C131.933 10.664 130.995 11.0053 130.227 11.688C129.48 12.3493 129.021 13.2773 128.851 14.472H137.267Z" fill="#00D347"/>
</svg>
