<svg width="166" height="20" viewBox="0 0 166 20" fill="none" xmlns="http://www.w3.org/2000/svg">
<path d="M15.792 8.008L14.904 12.16H18.072V14.56H14.4L13.44 19H10.824L11.784 14.56H7.08L6.12 19H3.504L4.464 14.56H0.744V12.16H4.968L5.856 8.008H2.16V5.608H6.36L7.296 1.24H9.912L8.976 5.608H13.68L14.616 1.24H17.232L16.296 5.608H19.488V8.008H15.792ZM13.176 8.008H8.472L7.584 12.16H12.288L13.176 8.008ZM28.2257 19.168C27.1057 19.168 26.0977 18.976 25.2017 18.592C24.3057 18.192 23.6017 17.632 23.0897 16.912C22.5777 16.192 22.3217 15.352 22.3217 14.392H25.2497C25.3137 15.112 25.5937 15.704 26.0897 16.168C26.6017 16.632 27.3137 16.864 28.2257 16.864C29.1697 16.864 29.9057 16.64 30.4337 16.192C30.9617 15.728 31.2257 15.136 31.2257 14.416C31.2257 13.856 31.0577 13.4 30.7217 13.048C30.4017 12.696 29.9937 12.424 29.4977 12.232C29.0177 12.04 28.3457 11.832 27.4817 11.608C26.3937 11.32 25.5057 11.032 24.8177 10.744C24.1457 10.44 23.5697 9.976 23.0897 9.352C22.6097 8.728 22.3697 7.896 22.3697 6.856C22.3697 5.896 22.6097 5.056 23.0897 4.336C23.5697 3.616 24.2417 3.064 25.1057 2.68C25.9697 2.296 26.9697 2.104 28.1057 2.104C29.7217 2.104 31.0417 2.512 32.0657 3.328C33.1057 4.128 33.6817 5.232 33.7937 6.64H30.7697C30.7217 6.032 30.4337 5.512 29.9057 5.08C29.3777 4.648 28.6817 4.432 27.8177 4.432C27.0337 4.432 26.3937 4.632 25.8977 5.032C25.4017 5.432 25.1537 6.008 25.1537 6.76C25.1537 7.272 25.3057 7.696 25.6097 8.032C25.9297 8.352 26.3297 8.608 26.8097 8.8C27.2897 8.992 27.9457 9.2 28.7777 9.424C29.8817 9.728 30.7777 10.032 31.4657 10.336C32.1697 10.64 32.7617 11.112 33.2417 11.752C33.7377 12.376 33.9857 13.216 33.9857 14.272C33.9857 15.12 33.7537 15.92 33.2897 16.672C32.8417 17.424 32.1777 18.032 31.2977 18.496C30.4337 18.944 29.4097 19.168 28.2257 19.168ZM36.3021 12.328C36.3021 11 36.5741 9.824 37.1181 8.8C37.6781 7.776 38.4301 6.984 39.3741 6.424C40.3341 5.848 41.3901 5.56 42.5421 5.56C43.5821 5.56 44.4861 5.768 45.2541 6.184C46.0381 6.584 46.6621 7.088 47.1261 7.696V5.776H49.8861V19H47.1261V17.032C46.6621 17.656 46.0301 18.176 45.2301 18.592C44.4301 19.008 43.5181 19.216 42.4941 19.216C41.3581 19.216 40.3181 18.928 39.3741 18.352C38.4301 17.76 37.6781 16.944 37.1181 15.904C36.5741 14.848 36.3021 13.656 36.3021 12.328ZM47.1261 12.376C47.1261 11.464 46.9341 10.672 46.5501 10C46.1821 9.328 45.6941 8.816 45.0861 8.464C44.4781 8.112 43.8221 7.936 43.1181 7.936C42.4141 7.936 41.7581 8.112 41.1501 8.464C40.5421 8.8 40.0461 9.304 39.6621 9.976C39.2941 10.632 39.1101 11.416 39.1101 12.328C39.1101 13.24 39.2941 14.04 39.6621 14.728C40.0461 15.416 40.5421 15.944 41.1501 16.312C41.7741 16.664 42.4301 16.84 43.1181 16.84C43.8221 16.84 44.4781 16.664 45.0861 16.312C45.6941 15.96 46.1821 15.448 46.5501 14.776C46.9341 14.088 47.1261 13.288 47.1261 12.376ZM59.0237 8.008H56.5757V19H53.8157V8.008H52.2557V5.776H53.8157V4.84C53.8157 3.32 54.2157 2.216 55.0157 1.528C55.8317 0.823999 57.1037 0.472 58.8317 0.472V2.752C57.9997 2.752 57.4157 2.912 57.0797 3.232C56.7437 3.536 56.5757 4.072 56.5757 4.84V5.776H59.0237V8.008ZM73.5684 12.064C73.5684 12.56 73.5364 13.008 73.4724 13.408H63.3684C63.4484 14.464 63.8404 15.312 64.5444 15.952C65.2484 16.592 66.1124 16.912 67.1364 16.912C68.6084 16.912 69.6484 16.296 70.2564 15.064H73.2084C72.8084 16.28 72.0804 17.28 71.0244 18.064C69.9844 18.832 68.6884 19.216 67.1364 19.216C65.8724 19.216 64.7364 18.936 63.7284 18.376C62.7364 17.8 61.9524 17 61.3764 15.976C60.8164 14.936 60.5364 13.736 60.5364 12.376C60.5364 11.016 60.8084 9.824 61.3524 8.8C61.9124 7.76 62.6884 6.96 63.6804 6.4C64.6884 5.84 65.8404 5.56 67.1364 5.56C68.3844 5.56 69.4964 5.832 70.4724 6.376C71.4484 6.92 72.2084 7.688 72.7524 8.68C73.2964 9.656 73.5684 10.784 73.5684 12.064ZM70.7124 11.2C70.6964 10.192 70.3364 9.384 69.6324 8.776C68.9284 8.168 68.0564 7.864 67.0164 7.864C66.0724 7.864 65.2644 8.168 64.5924 8.776C63.9204 9.368 63.5204 10.176 63.3924 11.2H70.7124ZM86.4129 9.16V11.464H76.5489V9.16H86.4129ZM113.999 9.16V11.464H104.135V9.16H113.999ZM127.702 2.32V4.552H120.622V9.472H126.142V11.704H120.622V19H117.886V2.32H127.702ZM129.326 12.328C129.326 11 129.598 9.824 130.142 8.8C130.702 7.776 131.454 6.984 132.398 6.424C133.358 5.848 134.414 5.56 135.566 5.56C136.606 5.56 137.51 5.768 138.278 6.184C139.062 6.584 139.686 7.088 140.15 7.696V5.776H142.91V19H140.15V17.032C139.686 17.656 139.054 18.176 138.254 18.592C137.454 19.008 136.542 19.216 135.518 19.216C134.382 19.216 133.342 18.928 132.398 18.352C131.454 17.76 130.702 16.944 130.142 15.904C129.598 14.848 129.326 13.656 129.326 12.328ZM140.15 12.376C140.15 11.464 139.958 10.672 139.574 10C139.206 9.328 138.718 8.816 138.11 8.464C137.502 8.112 136.846 7.936 136.142 7.936C135.438 7.936 134.782 8.112 134.174 8.464C133.566 8.8 133.07 9.304 132.686 9.976C132.318 10.632 132.134 11.416 132.134 12.328C132.134 13.24 132.318 14.04 132.686 14.728C133.07 15.416 133.566 15.944 134.174 16.312C134.798 16.664 135.454 16.84 136.142 16.84C136.846 16.84 137.502 16.664 138.11 16.312C138.718 15.96 139.206 15.448 139.574 14.776C139.958 14.088 140.15 13.288 140.15 12.376ZM151.303 19.216C150.263 19.216 149.327 19.032 148.495 18.664C147.679 18.28 147.031 17.768 146.551 17.128C146.071 16.472 145.815 15.744 145.783 14.944H148.615C148.663 15.504 148.927 15.976 149.407 16.36C149.903 16.728 150.519 16.912 151.255 16.912C152.023 16.912 152.615 16.768 153.031 16.48C153.463 16.176 153.679 15.792 153.679 15.328C153.679 14.832 153.439 14.464 152.959 14.224C152.495 13.984 151.751 13.72 150.727 13.432C149.735 13.16 148.927 12.896 148.303 12.64C147.679 12.384 147.135 11.992 146.671 11.464C146.223 10.936 145.999 10.24 145.999 9.376C145.999 8.672 146.207 8.032 146.623 7.456C147.039 6.864 147.631 6.4 148.399 6.064C149.183 5.728 150.079 5.56 151.087 5.56C152.591 5.56 153.799 5.944 154.711 6.712C155.639 7.464 156.135 8.496 156.199 9.808H153.463C153.415 9.216 153.175 8.744 152.743 8.392C152.311 8.04 151.727 7.864 150.991 7.864C150.271 7.864 149.719 8 149.335 8.272C148.951 8.544 148.759 8.904 148.759 9.352C148.759 9.704 148.887 10 149.143 10.24C149.399 10.48 149.711 10.672 150.079 10.816C150.447 10.944 150.991 11.112 151.711 11.32C152.671 11.576 153.455 11.84 154.063 12.112C154.687 12.368 155.223 12.752 155.671 13.264C156.119 13.776 156.351 14.456 156.367 15.304C156.367 16.056 156.159 16.728 155.743 17.32C155.327 17.912 154.735 18.376 153.967 18.712C153.215 19.048 152.327 19.216 151.303 19.216ZM162.515 8.008V15.328C162.515 15.824 162.627 16.184 162.851 16.408C163.091 16.616 163.491 16.72 164.051 16.72H165.731V19H163.571C162.339 19 161.395 18.712 160.739 18.136C160.083 17.56 159.755 16.624 159.755 15.328V8.008H158.195V5.776H159.755V2.488H162.515V5.776H165.731V8.008H162.515Z" fill="white"/>
<path d="M101.076 2.32V4.552H96.636V19H93.9V4.552H89.436V2.32H101.076Z" fill="#00D347"/>
</svg>
